<mxfile host="app.diagrams.net" modified="2023-05-16T07:15:01.768Z" agent="Mozilla/5.0 (Macintosh; Intel Mac OS X 10_15_7) AppleWebKit/537.36 (KHTML, like Gecko) Chrome/113.0.0.0 Safari/537.36" version="21.3.0" etag="uzX8EdqfD04BiT7YwMMz" type="github">
  <diagram name="Page-1" id="bvlGbhSkXADkSgsiqqrl">
    <mxGraphModel>
      <root>
        <mxCell id="0" />
        <mxCell id="1" parent="0" />
      </root>
    </mxGraphModel>
  </diagram>
</mxfile>
